<svg width="283" height="70" viewBox="0 0 283 70" xmlns="http://www.w3.org/2000/svg">
    <g fill="none" fill-rule="evenodd">
        <path d="M19.73 0h243.54c6.687 0 9.112.696 11.556 2.003a13.63 13.63 0 0 1 5.67 5.67c1.308 2.445 2.004 4.87 2.004 11.556v31.542c0 6.686-.696 9.11-2.003 11.555a13.63 13.63 0 0 1-5.67 5.67C272.381 69.305 269.956 70 263.27 70H19.729c-6.686 0-9.11-.696-11.555-2.003a13.63 13.63 0 0 1-5.67-5.67C1.195 59.881.5 57.456.5 50.77V19.229c0-6.686.696-9.11 2.003-11.555a13.63 13.63 0 0 1 5.67-5.67C10.619.695 13.044 0 19.73 0z" fill="#000"/>
        <text font-family="Gilroy-Regular, Gilroy" font-size="16" letter-spacing=".314" fill="#FFF" transform="translate(.5)">
                    <tspan x="106" y="39">Continue</tspan>
                </text>
    </g>
</svg>
