<svg width="189" height="70" viewBox="0 0 189 70" xmlns="http://www.w3.org/2000/svg">
    <g fill="none" fill-rule="evenodd">
        <path d="M19.23 0h150.54c6.687 0 9.112.696 11.556 2.003a13.63 13.63 0 0 1 5.67 5.67c1.308 2.445 2.004 4.87 2.004 11.556v31.542c0 6.686-.696 9.11-2.003 11.555a13.63 13.63 0 0 1-5.67 5.67C178.881 69.305 176.456 70 169.77 70H19.229c-6.686 0-9.11-.696-11.555-2.003a13.63 13.63 0 0 1-5.67-5.67C.695 59.881 0 57.456 0 50.77V19.229c0-6.686.696-9.11 2.003-11.555a13.63 13.63 0 0 1 5.67-5.67C10.119.695 12.544 0 19.23 0z" fill="#000"/>
        <text font-family="Gilroy-Regular, Gilroy" font-size="16" letter-spacing=".314" fill="#FFF">
                    <tspan x="74.5" y="39">Send</tspan>
                </text>
    </g>
</svg>
